<mxfile host="app.diagrams.net" agent="Mozilla/5.0 (X11; Linux x86_64; rv:134.0) Gecko/20100101 Firefox/134.0" version="26.0.7">
  <diagram name="Page-1" id="2O54he_iV0tcfqrj9Db2">
    <mxGraphModel dx="1590" dy="922" grid="1" gridSize="10" guides="1" tooltips="1" connect="1" arrows="1" fold="1" page="1" pageScale="1" pageWidth="850" pageHeight="1100" math="0" shadow="0">
      <root>
        <mxCell id="0" />
        <mxCell id="1" parent="0" />
        <mxCell id="TpiMZ8z6lbcMxNbBs4mE-25" value="Super user" style="swimlane;" parent="1" vertex="1">
          <mxGeometry x="190" y="40" width="410" height="620" as="geometry" />
        </mxCell>
        <mxCell id="TpiMZ8z6lbcMxNbBs4mE-26" value="" style="ellipse;html=1;shape=startState;fillColor=#000000;strokeColor=#ff0000;" parent="TpiMZ8z6lbcMxNbBs4mE-25" vertex="1">
          <mxGeometry x="164.75" y="30" width="30" height="30" as="geometry" />
        </mxCell>
        <mxCell id="TpiMZ8z6lbcMxNbBs4mE-27" value="" style="edgeStyle=orthogonalEdgeStyle;html=1;verticalAlign=bottom;endArrow=open;endSize=8;strokeColor=#ff0000;rounded=0;entryX=0.5;entryY=0;entryDx=0;entryDy=0;" parent="TpiMZ8z6lbcMxNbBs4mE-25" source="TpiMZ8z6lbcMxNbBs4mE-26" target="TpiMZ8z6lbcMxNbBs4mE-28" edge="1">
          <mxGeometry relative="1" as="geometry">
            <mxPoint x="179.75" y="130" as="targetPoint" />
          </mxGeometry>
        </mxCell>
        <mxCell id="TpiMZ8z6lbcMxNbBs4mE-28" value="Open Web Panel Of Admin" style="rounded=1;whiteSpace=wrap;html=1;arcSize=50;fontColor=#000000;fillColor=#ffffc0;strokeColor=#ff0000;" parent="TpiMZ8z6lbcMxNbBs4mE-25" vertex="1">
          <mxGeometry x="119.75" y="70" width="120" height="40" as="geometry" />
        </mxCell>
        <mxCell id="TpiMZ8z6lbcMxNbBs4mE-29" value="" style="edgeStyle=orthogonalEdgeStyle;html=1;verticalAlign=bottom;endArrow=open;endSize=8;strokeColor=#ff0000;rounded=0;entryX=0.5;entryY=0;entryDx=0;entryDy=0;" parent="TpiMZ8z6lbcMxNbBs4mE-25" source="TpiMZ8z6lbcMxNbBs4mE-28" target="TpiMZ8z6lbcMxNbBs4mE-30" edge="1">
          <mxGeometry relative="1" as="geometry">
            <mxPoint x="179.75" y="260" as="targetPoint" />
            <Array as="points" />
          </mxGeometry>
        </mxCell>
        <mxCell id="TpiMZ8z6lbcMxNbBs4mE-30" value="Enter the password " style="rounded=1;whiteSpace=wrap;html=1;arcSize=40;fontColor=#000000;fillColor=#ffffc0;strokeColor=#ff0000;" parent="TpiMZ8z6lbcMxNbBs4mE-25" vertex="1">
          <mxGeometry x="120" y="120" width="120" height="60" as="geometry" />
        </mxCell>
        <mxCell id="DbU4vVNVeQuLeiw8wJ58-33" style="edgeStyle=orthogonalEdgeStyle;html=1;verticalAlign=bottom;endArrow=open;endSize=8;strokeColor=#ff0000;rounded=0;entryX=0.5;entryY=0;entryDx=0;entryDy=0;exitX=0.5;exitY=1;exitDx=0;exitDy=0;" edge="1" parent="TpiMZ8z6lbcMxNbBs4mE-25" source="TpiMZ8z6lbcMxNbBs4mE-34" target="DbU4vVNVeQuLeiw8wJ58-32">
          <mxGeometry relative="1" as="geometry">
            <Array as="points">
              <mxPoint x="180" y="260" />
            </Array>
          </mxGeometry>
        </mxCell>
        <mxCell id="TpiMZ8z6lbcMxNbBs4mE-34" value="show the admin panel" style="rounded=1;whiteSpace=wrap;html=1;arcSize=40;fontColor=#000000;fillColor=#ffffc0;strokeColor=#ff0000;" parent="TpiMZ8z6lbcMxNbBs4mE-25" vertex="1">
          <mxGeometry x="115" y="200" width="130" height="50" as="geometry" />
        </mxCell>
        <mxCell id="DbU4vVNVeQuLeiw8wJ58-32" value="Get statistics of the server" style="rounded=1;whiteSpace=wrap;html=1;arcSize=40;fontColor=#000000;fillColor=#ffffc0;strokeColor=#ff0000;" vertex="1" parent="TpiMZ8z6lbcMxNbBs4mE-25">
          <mxGeometry x="120" y="266" width="120" height="40" as="geometry" />
        </mxCell>
        <mxCell id="DbU4vVNVeQuLeiw8wJ58-76" style="edgeStyle=orthogonalEdgeStyle;html=1;verticalAlign=bottom;endArrow=open;endSize=8;strokeColor=#ff0000;rounded=0;entryX=1;entryY=0.5;entryDx=0;entryDy=0;exitX=0.5;exitY=1;exitDx=0;exitDy=0;" edge="1" parent="TpiMZ8z6lbcMxNbBs4mE-25" source="DbU4vVNVeQuLeiw8wJ58-35" target="DbU4vVNVeQuLeiw8wJ58-47">
          <mxGeometry relative="1" as="geometry" />
        </mxCell>
        <mxCell id="DbU4vVNVeQuLeiw8wJ58-35" value="show statistic" style="rounded=1;whiteSpace=wrap;html=1;arcSize=40;fontColor=#000000;fillColor=#ffffc0;strokeColor=#ff0000;" vertex="1" parent="TpiMZ8z6lbcMxNbBs4mE-25">
          <mxGeometry x="120" y="320" width="120" height="40" as="geometry" />
        </mxCell>
        <mxCell id="DbU4vVNVeQuLeiw8wJ58-47" value="" style="ellipse;html=1;shape=endState;fillColor=#000000;strokeColor=#ff0000;" vertex="1" parent="TpiMZ8z6lbcMxNbBs4mE-25">
          <mxGeometry x="172" y="460" width="30" height="30" as="geometry" />
        </mxCell>
        <mxCell id="TpiMZ8z6lbcMxNbBs4mE-38" value="server" style="swimlane;" parent="1" vertex="1">
          <mxGeometry x="600" y="40" width="400" height="620" as="geometry" />
        </mxCell>
        <mxCell id="DbU4vVNVeQuLeiw8wJ58-40" value="validate credentials" style="rounded=1;whiteSpace=wrap;html=1;arcSize=40;fontColor=#000000;fillColor=#ffffc0;strokeColor=#ff0000;" vertex="1" parent="TpiMZ8z6lbcMxNbBs4mE-38">
          <mxGeometry x="115" y="95" width="120" height="40" as="geometry" />
        </mxCell>
        <mxCell id="DbU4vVNVeQuLeiw8wJ58-41" value="" style="edgeStyle=orthogonalEdgeStyle;html=1;verticalAlign=bottom;endArrow=open;endSize=8;strokeColor=#ff0000;rounded=0;entryX=0.5;entryY=0;entryDx=0;entryDy=0;" edge="1" parent="TpiMZ8z6lbcMxNbBs4mE-38" source="DbU4vVNVeQuLeiw8wJ58-40" target="DbU4vVNVeQuLeiw8wJ58-44">
          <mxGeometry relative="1" as="geometry">
            <mxPoint x="175" y="215" as="targetPoint" />
          </mxGeometry>
        </mxCell>
        <mxCell id="DbU4vVNVeQuLeiw8wJ58-42" value="gather Data of Load, number of users, files and..." style="rounded=1;whiteSpace=wrap;html=1;arcSize=40;fontColor=#000000;fillColor=#ffffc0;strokeColor=#ff0000;" vertex="1" parent="TpiMZ8z6lbcMxNbBs4mE-38">
          <mxGeometry x="117" y="313" width="114" height="50" as="geometry" />
        </mxCell>
        <mxCell id="DbU4vVNVeQuLeiw8wJ58-44" value="" style="rhombus;whiteSpace=wrap;html=1;fontColor=#000000;fillColor=#ffffc0;strokeColor=#ff0000;" vertex="1" parent="TpiMZ8z6lbcMxNbBs4mE-38">
          <mxGeometry x="135" y="205" width="80" height="40" as="geometry" />
        </mxCell>
        <mxCell id="DbU4vVNVeQuLeiw8wJ58-58" value="" style="edgeStyle=orthogonalEdgeStyle;html=1;verticalAlign=bottom;endArrow=open;endSize=8;strokeColor=#ff0000;rounded=0;entryX=1;entryY=0.5;entryDx=0;entryDy=0;exitX=0.5;exitY=1;exitDx=0;exitDy=0;" edge="1" parent="TpiMZ8z6lbcMxNbBs4mE-38" target="DbU4vVNVeQuLeiw8wJ58-35">
          <mxGeometry relative="1" as="geometry">
            <mxPoint x="185" y="420" as="targetPoint" />
            <mxPoint x="178.00000000000045" y="363" as="sourcePoint" />
            <Array as="points">
              <mxPoint x="180" y="363" />
              <mxPoint x="180" y="410" />
              <mxPoint x="-70" y="410" />
              <mxPoint x="-70" y="340" />
            </Array>
          </mxGeometry>
        </mxCell>
        <mxCell id="DbU4vVNVeQuLeiw8wJ58-49" value="invalid" style="edgeStyle=orthogonalEdgeStyle;html=1;verticalAlign=bottom;endArrow=open;endSize=8;strokeColor=#ff0000;rounded=0;entryX=0.5;entryY=1;entryDx=0;entryDy=0;exitX=1;exitY=0.5;exitDx=0;exitDy=0;" edge="1" parent="1" source="DbU4vVNVeQuLeiw8wJ58-44" target="DbU4vVNVeQuLeiw8wJ58-47">
          <mxGeometry relative="1" as="geometry">
            <mxPoint x="820" y="250" as="sourcePoint" />
            <Array as="points">
              <mxPoint x="930" y="265" />
              <mxPoint x="930" y="580" />
              <mxPoint x="377" y="580" />
            </Array>
          </mxGeometry>
        </mxCell>
        <mxCell id="TpiMZ8z6lbcMxNbBs4mE-31" value="" style="edgeStyle=orthogonalEdgeStyle;html=1;verticalAlign=bottom;endArrow=open;endSize=8;strokeColor=#ff0000;rounded=0;" parent="1" source="TpiMZ8z6lbcMxNbBs4mE-30" target="DbU4vVNVeQuLeiw8wJ58-40" edge="1">
          <mxGeometry relative="1" as="geometry">
            <mxPoint x="370" y="300" as="targetPoint" />
            <Array as="points" />
          </mxGeometry>
        </mxCell>
        <mxCell id="DbU4vVNVeQuLeiw8wJ58-45" value="&lt;div&gt;valid&lt;/div&gt;" style="edgeStyle=orthogonalEdgeStyle;html=1;align=left;verticalAlign=top;endArrow=open;endSize=8;strokeColor=#ff0000;rounded=0;entryX=1;entryY=0.5;entryDx=0;entryDy=0;exitX=0;exitY=0.5;exitDx=0;exitDy=0;" edge="1" parent="1" source="DbU4vVNVeQuLeiw8wJ58-44" target="TpiMZ8z6lbcMxNbBs4mE-34">
          <mxGeometry x="-1" relative="1" as="geometry">
            <mxPoint x="510" y="280" as="targetPoint" />
            <Array as="points">
              <mxPoint x="735" y="265" />
            </Array>
          </mxGeometry>
        </mxCell>
        <mxCell id="DbU4vVNVeQuLeiw8wJ58-39" style="edgeStyle=orthogonalEdgeStyle;html=1;verticalAlign=bottom;endArrow=open;endSize=8;strokeColor=#ff0000;rounded=0;exitX=1;exitY=0.5;exitDx=0;exitDy=0;" edge="1" parent="1" source="DbU4vVNVeQuLeiw8wJ58-32" target="DbU4vVNVeQuLeiw8wJ58-42">
          <mxGeometry relative="1" as="geometry">
            <Array as="points">
              <mxPoint x="560" y="326" />
              <mxPoint x="560" y="350" />
              <mxPoint x="690" y="350" />
              <mxPoint x="690" y="380" />
            </Array>
          </mxGeometry>
        </mxCell>
      </root>
    </mxGraphModel>
  </diagram>
</mxfile>
